<svg width="25" height="24" viewBox="0 0 25 24" fill="none" xmlns="http://www.w3.org/2000/svg">
<g clip-path="url(#clip0_4562_29152)">
<path d="M21.7863 11.9996C21.7863 14.4623 20.808 16.8242 19.0666 18.5656C17.3251 20.307 14.9633 21.2853 12.5006 21.2853C10.0378 21.2853 7.67598 20.307 5.93457 18.5656C4.19316 16.8242 3.21484 14.4623 3.21484 11.9996M21.7863 11.9996C21.7863 9.53686 20.808 7.175 19.0666 5.43359C17.3251 3.69218 14.9633 2.71387 12.5006 2.71387C10.0378 2.71387 7.67598 3.69218 5.93457 5.43359C4.19316 7.175 3.21484 9.53686 3.21484 11.9996M21.7863 11.9996H3.21484" stroke="black" stroke-linecap="round" stroke-linejoin="round"/>
<path d="M16.0725 11.9996C15.8971 15.3953 14.6464 18.6472 12.5011 21.2853C10.3559 18.6472 9.10511 15.3953 8.92969 11.9996C9.10511 8.60388 10.3559 5.35194 12.5011 2.71387C14.6464 5.35194 15.8971 8.60388 16.0725 11.9996Z" stroke="black" stroke-linecap="round" stroke-linejoin="round"/>
</g>
<defs>
<clipPath id="clip0_4562_29152">
<rect width="20" height="20" fill="white" transform="translate(2.5 2)"/>
</clipPath>
</defs>
</svg>
