<svg width="25" height="24" viewBox="0 0 25 24" fill="none" xmlns="http://www.w3.org/2000/svg">
<path d="M16.6663 11.0045C16.6663 10.7161 16.6663 10.572 16.7097 10.4436C16.8355 10.0703 17.168 9.92614 17.5013 9.77447C17.8747 9.60364 18.0613 9.51864 18.2472 9.50364C18.4572 9.48697 18.668 9.53197 18.848 9.6328C19.0863 9.76614 19.253 10.0211 19.423 10.2278C20.2088 11.1828 20.6022 11.6603 20.7455 12.1861C20.8622 12.6111 20.8622 13.0561 20.7455 13.4803C20.5363 14.2486 19.8738 14.892 19.383 15.4886C19.1322 15.7928 19.0063 15.9453 18.848 16.0345C18.6649 16.136 18.4558 16.181 18.2472 16.1636C18.0613 16.1486 17.8747 16.0636 17.5005 15.8928C17.1672 15.7411 16.8355 15.597 16.7097 15.2236C16.6663 15.0953 16.6663 14.9511 16.6663 14.6628V11.0045ZM8.33301 11.0045C8.33301 10.6411 8.32301 10.3153 8.02968 10.0603C7.92301 9.9678 7.78135 9.90364 7.49885 9.77447C7.12468 9.60447 6.93801 9.51864 6.75218 9.50364C6.19635 9.45864 5.89718 9.83864 5.57718 10.2286C4.79051 11.1828 4.39718 11.6603 4.25301 12.187C4.13702 12.6106 4.13702 13.0575 4.25301 13.4811C4.46301 14.2486 5.12635 14.8928 5.61635 15.4886C5.92551 15.8636 6.22135 16.2061 6.75218 16.1636C6.93801 16.1486 7.12468 16.0636 7.49885 15.8928C7.78218 15.7645 7.92301 15.6995 8.02968 15.607C8.32301 15.352 8.33301 15.0261 8.33301 14.6636V11.0045Z" stroke="black" stroke-linecap="round" stroke-linejoin="round"/>
<path d="M6.66602 9.5C6.66602 6.73833 9.27768 4.5 12.4993 4.5C15.721 4.5 18.3327 6.73833 18.3327 9.5M18.3327 16.1667V16.8333C18.3327 18.3058 16.841 19.5 14.9993 19.5H13.3327" stroke="black" stroke-linecap="round" stroke-linejoin="round"/>
</svg>
