<svg width="25" height="24" viewBox="0 0 25 24" fill="none" xmlns="http://www.w3.org/2000/svg">
<path d="M12.7031 10C14.9123 10 16.7031 8.20914 16.7031 6C16.7031 3.79086 14.9123 2 12.7031 2C10.494 2 8.70312 3.79086 8.70312 6C8.70312 8.20914 10.494 10 12.7031 10Z" stroke="black"/>
<path d="M20.7011 18C20.7025 17.836 20.7031 17.6693 20.7031 17.5C20.7031 15.015 17.1211 13 12.7031 13C8.28512 13 4.70312 15.015 4.70312 17.5C4.70312 19.985 4.70312 22 12.7031 22C14.9341 22 16.5431 21.843 17.7031 21.563" stroke="black" stroke-linecap="round"/>
</svg>
