<svg width="25" height="24" viewBox="0 0 25 24" fill="none" xmlns="http://www.w3.org/2000/svg">
<g clip-path="url(#clip0_4563_30109)">
<path d="M17.4727 7.40146V9.73974M17.471 4.56431C17.443 4.56431 17.4152 4.55876 17.3893 4.54797C17.3634 4.53718 17.3399 4.52137 17.3201 4.50145C17.3004 4.48153 17.2847 4.45789 17.2742 4.4319C17.2636 4.40591 17.2582 4.37809 17.2585 4.35003C17.2585 4.23003 17.3545 4.13574 17.471 4.13574M17.4745 4.56431C17.531 4.56386 17.5851 4.54109 17.6249 4.50095C17.6647 4.46081 17.687 4.40656 17.687 4.35003C17.6873 4.32197 17.6819 4.29414 17.6713 4.26815C17.6608 4.24217 17.6451 4.21853 17.6254 4.19861C17.6056 4.17869 17.5821 4.16288 17.5562 4.15209C17.5303 4.1413 17.5025 4.13574 17.4745 4.13574M1.96875 22.0535H22.5522M3.90932 11.7077C3.90932 12.1443 3.9953 12.5765 4.16235 12.9798C4.32939 13.3831 4.57424 13.7495 4.8829 14.0582C5.19156 14.3668 5.558 14.6117 5.96128 14.7787C6.36457 14.9458 6.79681 15.0317 7.23332 15.0317C7.66984 15.0317 8.10207 14.9458 8.50536 14.7787C8.90865 14.6117 9.27508 14.3668 9.58374 14.0582C9.89241 13.7495 10.1373 13.3831 10.3043 12.9798C10.4713 12.5765 10.5573 12.1443 10.5573 11.7077C10.5573 11.2712 10.4713 10.839 10.3043 10.4357C10.1373 10.0324 9.89241 9.66598 9.58374 9.35732C9.27508 9.04866 8.90865 8.80381 8.50536 8.63677C8.10207 8.46972 7.66984 8.38374 7.23332 8.38374C6.79681 8.38374 6.36457 8.46972 5.96128 8.63677C5.558 8.80381 5.19156 9.04866 4.8829 9.35732C4.57424 9.66598 4.32939 10.0324 4.16235 10.4357C3.9953 10.839 3.90932 11.2712 3.90932 11.7077Z" stroke="black" stroke-linecap="round" stroke-linejoin="round"/>
<path d="M1.96484 22.0547V20.2993C1.96484 18.9023 2.51977 17.5626 3.50755 16.5748C4.49534 15.5871 5.83505 15.0321 7.23199 15.0321C8.62892 15.0321 9.96864 15.5871 10.9564 16.5748C11.9442 17.5626 12.4991 18.9023 12.4991 20.2993V22.0547M13.1746 11.5136C14.1707 12.4884 15.471 13.0921 16.8585 13.2242C18.246 13.3562 19.6369 13.0085 20.799 12.2391C21.9612 11.4697 22.8244 10.325 23.2447 8.99612C23.6649 7.66722 23.6169 6.2344 23.1085 4.93665C22.6001 3.63891 21.6621 2.55471 20.451 1.86491C19.2399 1.17511 17.8289 0.921407 16.4533 1.14613C15.0778 1.37086 13.8209 2.06042 12.8923 3.09979C11.9637 4.13916 11.4195 5.4655 11.3506 6.85757" stroke="black" stroke-linecap="round" stroke-linejoin="round"/>
</g>
<defs>
<clipPath id="clip0_4563_30109">
<rect width="24" height="24" fill="white" transform="translate(0.5)"/>
</clipPath>
</defs>
</svg>
