<svg width="25" height="24" viewBox="0 0 25 24" fill="none" xmlns="http://www.w3.org/2000/svg">
<path d="M5.116 19C4.65533 19 4.271 18.846 3.963 18.538C3.655 18.23 3.50067 17.8453 3.5 17.384V6.616C3.5 6.15533 3.65433 5.771 3.963 5.463C4.27167 5.155 4.65567 5.00067 5.115 5H19.885C20.345 5 20.729 5.15433 21.037 5.463C21.345 5.77167 21.4993 6.156 21.5 6.616V17.385C21.5 17.845 21.3457 18.2293 21.037 18.538C20.7283 18.8467 20.3443 19.0007 19.885 19H5.116ZM5.116 18H19.885C20.0383 18 20.1793 17.936 20.308 17.808C20.4367 17.68 20.5007 17.5387 20.5 17.384V8H4.5V17.385C4.5 17.5383 4.564 17.6793 4.692 17.808C4.82 17.9367 4.961 18.0007 5.115 18M11.45 15.82L8.592 12.962L9.312 12.242L11.45 14.381L15.689 10.142L16.408 10.862L11.45 15.82ZM5.116 18H4.5V6H5.116C4.962 6 4.82067 6.064 4.692 6.192C4.56333 6.32 4.49933 6.46133 4.5 6.616V17.385C4.5 17.5383 4.564 17.6793 4.692 17.808C4.82 17.9367 4.961 18.0007 5.115 18" fill="black"/>
</svg>
