<svg width="25" height="24" viewBox="0 0 25 24" fill="none" xmlns="http://www.w3.org/2000/svg">
<path d="M16 19.2142L12.442 15.6562L13.15 14.9482L16 17.7982L21.689 12.1102L22.396 12.8172L16 19.2142ZM20.5 10.0002H19.5V5.61623C19.5 5.46223 19.436 5.3209 19.308 5.19223C19.18 5.06357 19.0387 4.99957 18.884 5.00023H16.5V7.23023H8.5V5.00023H6.116C5.962 5.00023 5.82067 5.06423 5.692 5.19223C5.56333 5.32023 5.49933 5.46157 5.5 5.61623V18.3852C5.5 18.5386 5.564 18.6796 5.692 18.8082C5.82 18.9369 5.961 19.0009 6.115 19.0002H11.5V20.0002H6.116C5.668 20.0002 5.28667 19.8429 4.972 19.5282C4.65733 19.2136 4.5 18.8326 4.5 18.3852V5.61523C4.5 5.16857 4.65733 4.78757 4.972 4.47223C5.28667 4.15757 5.668 4.00023 6.116 4.00023H10.752C10.8453 3.60957 11.053 3.28123 11.375 3.01523C11.697 2.74857 12.072 2.61523 12.5 2.61523C12.936 2.61523 13.314 2.74857 13.634 3.01523C13.954 3.28057 14.1607 3.6089 14.254 4.00023H18.884C19.332 4.00023 19.7133 4.15757 20.028 4.47223C20.3427 4.7869 20.5 5.16823 20.5 5.61623V10.0002ZM12.5 5.23023C12.732 5.23023 12.9247 5.1539 13.078 5.00123C13.2313 4.8479 13.308 4.65523 13.308 4.42323C13.308 4.19123 13.2313 3.99857 13.078 3.84523C12.9247 3.6919 12.732 3.61523 12.5 3.61523C12.268 3.61523 12.0753 3.6919 11.922 3.84523C11.7687 3.99857 11.692 4.19123 11.692 4.42323C11.692 4.65523 11.7687 4.8479 11.922 5.00123C12.0753 5.15457 12.268 5.23023 12.5 5.23023Z" fill="black"/>
</svg>
