<svg width="25" height="24" viewBox="0 0 25 24" fill="none" xmlns="http://www.w3.org/2000/svg">
<path d="M2.5 7.625C2.5 6.7962 2.82924 6.00134 3.41529 5.41529C4.00134 4.82924 4.7962 4.5 5.625 4.5H19.375C20.2038 4.5 20.9987 4.82924 21.5847 5.41529C22.1708 6.00134 22.5 6.7962 22.5 7.625V16.375C22.5 17.2038 22.1708 17.9987 21.5847 18.5847C20.9987 19.1708 20.2038 19.5 19.375 19.5H5.625C4.7962 19.5 4.00134 19.1708 3.41529 18.5847C2.82924 17.9987 2.5 17.2038 2.5 16.375V7.625ZM5.625 5.75C5.12772 5.75 4.65081 5.94754 4.29917 6.29917C3.94754 6.65081 3.75 7.12772 3.75 7.625V9.25H21.25V7.625C21.25 7.12772 21.0525 6.65081 20.7008 6.29917C20.3492 5.94754 19.8723 5.75 19.375 5.75H5.625ZM3.75 16.375C3.75 16.8723 3.94754 17.3492 4.29917 17.7008C4.65081 18.0525 5.12772 18.25 5.625 18.25H19.375C19.8723 18.25 20.3492 18.0525 20.7008 17.7008C21.0525 17.3492 21.25 16.8723 21.25 16.375V10.5H3.75V16.375ZM16.125 14.75C15.9592 14.75 15.8003 14.8158 15.6831 14.9331C15.5658 15.0503 15.5 15.2092 15.5 15.375C15.5 15.5408 15.5658 15.6997 15.6831 15.8169C15.8003 15.9342 15.9592 16 16.125 16H18.875C19.0408 16 19.1997 15.9342 19.3169 15.8169C19.4342 15.6997 19.5 15.5408 19.5 15.375C19.5 15.2092 19.4342 15.0503 19.3169 14.9331C19.1997 14.8158 19.0408 14.75 18.875 14.75H16.125Z" fill="black"/>
</svg>
