<svg width="25" height="24" viewBox="0 0 25 24" fill="none" xmlns="http://www.w3.org/2000/svg">
<path d="M4.24609 16.5358V10.9033H10.8861V16.5358M9.62909 18.3713H9.95609C10.1511 18.3713 10.3061 18.5283 10.3061 18.7213V19.0498C10.3061 19.1426 10.2692 19.2317 10.2036 19.2973C10.1379 19.3629 10.0489 19.3998 9.95609 19.3998H9.62909C9.53635 19.4002 9.44725 19.3638 9.38134 19.2985C9.31544 19.2333 9.27812 19.1446 9.27759 19.0518V18.7208C9.27759 18.5283 9.43459 18.3713 9.62909 18.3713Z" stroke="black" stroke-width="0.5" stroke-linecap="round" stroke-linejoin="round"/>
<path d="M14.749 19.7607H11.884M11.884 18.5512H14.749M3.9495 16.6422H11.1885C11.5745 16.6422 11.8875 16.9552 11.8875 17.3417V20.4297C11.8875 20.6152 11.8139 20.7931 11.6828 20.9244C11.5518 21.0556 11.374 21.1295 11.1885 21.1297H3.9495C3.76394 21.1296 3.58602 21.0558 3.45485 20.9245C3.32368 20.7933 3.25 20.6153 3.25 20.4297V17.3417C3.25 16.9552 3.563 16.6422 3.9495 16.6422ZM17.545 14.9657L18.446 15.8672H21.0225C21.4065 15.8702 21.716 16.1822 21.716 16.5667V20.3787C21.716 20.7652 21.403 21.0782 21.0165 21.0782H15.4465C15.261 21.0781 15.0832 21.0044 14.952 20.8732C14.8209 20.7421 14.7471 20.5642 14.747 20.3787V15.8672L15.649 14.9657H17.545ZM15.849 12.4877V13.5257L13.785 11.4462L15.849 9.36723V10.4047H19.686V9.36523L21.75 11.4452L19.686 13.5242V12.4882L15.849 12.4877Z" stroke="black" stroke-width="0.5" stroke-linecap="round" stroke-linejoin="round"/>
<path d="M15.9702 8.22209V2.87109H17.7527C18.7602 2.87109 19.5767 3.67459 19.5767 4.66659C19.5767 5.65859 18.7602 6.46609 17.7532 6.46609H15.9702M10.9562 2.87109H14.5627M12.7592 8.22209V2.87109M6.82617 5.54509H8.59567M6.82617 8.22209V2.87109H9.54817" stroke="black" stroke-width="0.5" stroke-linecap="round" stroke-linejoin="round"/>
</svg>
