<svg width="25" height="24" viewBox="0 0 25 24" fill="none" xmlns="http://www.w3.org/2000/svg">
<path d="M12.5 14.5C13.8807 14.5 15 13.3807 15 12C15 10.6193 13.8807 9.5 12.5 9.5C11.1193 9.5 10 10.6193 10 12C10 13.3807 11.1193 14.5 12.5 14.5Z" stroke="black"/>
<path d="M5.55023 10.867C5.9444 11.1137 6.19773 11.5353 6.19773 12.0003C6.19773 12.4653 5.9444 12.887 5.55023 13.1337C5.28273 13.3028 5.1094 13.437 4.9869 13.597C4.85364 13.7707 4.75591 13.9689 4.69929 14.1804C4.64267 14.3919 4.62826 14.6124 4.6569 14.8295C4.70023 15.1578 4.8944 15.4945 5.2819 16.167C5.67107 16.8395 5.86523 17.1753 6.12773 17.3778C6.30143 17.5111 6.49968 17.6088 6.71115 17.6654C6.92263 17.7221 7.14319 17.7365 7.36023 17.7078C7.56023 17.6812 7.76273 17.5995 8.04273 17.4512C8.24319 17.3417 8.46813 17.2849 8.69651 17.2861C8.92489 17.2873 9.14924 17.3463 9.34857 17.4578C9.75107 17.6912 9.99023 18.1203 10.0069 18.5853C10.0186 18.902 10.0486 19.1187 10.1261 19.3045C10.2098 19.5068 10.3326 19.6907 10.4875 19.8456C10.6424 20.0004 10.8262 20.1232 11.0286 20.207C11.3344 20.3337 11.7227 20.3337 12.4994 20.3337C13.2761 20.3337 13.6644 20.3337 13.9702 20.207C14.1726 20.1232 14.3564 20.0004 14.5113 19.8456C14.6662 19.6907 14.789 19.5068 14.8727 19.3045C14.9494 19.1187 14.9802 18.902 14.9919 18.5853C15.0086 18.1203 15.2477 17.6903 15.6502 17.4578C15.8496 17.3463 16.0739 17.2873 16.3023 17.2861C16.5307 17.2849 16.7556 17.3417 16.9561 17.4512C17.2361 17.5995 17.4394 17.6812 17.6394 17.7078C18.0775 17.7654 18.5205 17.6467 18.8711 17.3778C19.1336 17.1762 19.3277 16.8395 19.7161 16.167C19.8894 15.867 20.0236 15.6345 20.1236 15.4395M19.4486 13.1345C19.2536 13.0157 19.092 12.8495 18.9787 12.6513C18.8655 12.4531 18.8044 12.2294 18.8011 12.0012C18.8011 11.5353 19.0544 11.1137 19.4486 10.8662C19.7161 10.6978 19.8886 10.5637 20.0119 10.4037C20.1452 10.23 20.2429 10.0317 20.2995 9.82024C20.3561 9.60876 20.3705 9.3882 20.3419 9.17116C20.2986 8.84283 20.1044 8.50616 19.7169 7.83366C19.3277 7.16116 19.1336 6.82533 18.8711 6.62283C18.6974 6.48957 18.4991 6.39184 18.2876 6.33521C18.0762 6.27859 17.8556 6.26419 17.6386 6.29283C17.4386 6.31949 17.2361 6.40116 16.9552 6.54949C16.7549 6.65878 16.5301 6.71549 16.3019 6.71432C16.0737 6.71316 15.8495 6.65415 15.6502 6.54283C15.4541 6.4259 15.2908 6.26114 15.1757 6.06395C15.0606 5.86677 14.9973 5.6436 14.9919 5.41533C14.9802 5.09866 14.9502 4.88199 14.8727 4.69616C14.789 4.49381 14.6662 4.30995 14.5113 4.1551C14.3564 4.00024 14.1726 3.87742 13.9702 3.79366C13.6644 3.66699 13.2761 3.66699 12.4994 3.66699C11.7227 3.66699 11.3344 3.66699 11.0286 3.79366C10.8262 3.87742 10.6424 4.00024 10.4875 4.1551C10.3326 4.30995 10.2098 4.49381 10.1261 4.69616C10.0494 4.88199 10.0186 5.09866 10.0069 5.41533C10.0015 5.6436 9.93824 5.86677 9.8231 6.06395C9.70797 6.26114 9.5447 6.4259 9.34857 6.54283C9.14924 6.6543 8.92489 6.71339 8.69651 6.71455C8.46813 6.71572 8.24319 6.65893 8.04273 6.54949C7.76273 6.40116 7.5594 6.31949 7.3594 6.29283C6.92133 6.23522 6.47832 6.35391 6.12773 6.62283C5.86607 6.82533 5.67107 7.16116 5.28273 7.83366C5.1094 8.13366 4.97523 8.36616 4.87523 8.56116" stroke="black" stroke-linecap="round"/>
</svg>
