<svg width="25" height="24" viewBox="0 0 25 24" fill="none" xmlns="http://www.w3.org/2000/svg">
<path d="M12.7031 6V18M15.7031 9.5C15.7031 8.12 14.3601 7 12.7031 7C11.0461 7 9.70312 8.12 9.70312 9.5C9.70312 10.88 11.0461 12 12.7031 12C14.3601 12 15.7031 13.12 15.7031 14.5C15.7031 15.88 14.3601 17 12.7031 17C11.0461 17 9.70312 15.88 9.70312 14.5" stroke="black" stroke-linecap="round"/>
<path d="M7.70312 3.33801C9.22257 2.45874 10.9476 1.99712 12.7031 2.00001C18.2261 2.00001 22.7031 6.47701 22.7031 12C22.7031 17.523 18.2261 22 12.7031 22C7.18013 22 2.70312 17.523 2.70312 12C2.70312 10.179 3.19013 8.47001 4.04113 7.00001" stroke="black" stroke-linecap="round"/>
</svg>
