<svg width="18" height="19" viewBox="0 0 18 19" fill="none" xmlns="http://www.w3.org/2000/svg">
<path d="M9 1.76953C7.44248 1.76953 5.91992 2.23139 4.62489 3.09671C3.32985 3.96202 2.32049 5.19193 1.72445 6.6309C1.12841 8.06987 0.972461 9.65327 1.27632 11.1809C1.58018 12.7085 2.3302 14.1117 3.43154 15.213C4.53288 16.3143 5.93607 17.0644 7.46367 17.3682C8.99127 17.6721 10.5747 17.5161 12.0136 16.9201C13.4526 16.324 14.6825 15.3147 15.5478 14.0196C16.4131 12.7246 16.875 11.2021 16.875 9.64453C16.875 7.55595 16.0453 5.55291 14.5685 4.07607C13.0916 2.59922 11.0886 1.76953 9 1.76953ZM9 16.3945C7.66498 16.3945 6.35994 15.9987 5.2499 15.257C4.13987 14.5153 3.27471 13.461 2.76382 12.2276C2.25293 10.9942 2.11925 9.63704 2.3797 8.32767C2.64015 7.0183 3.28303 5.81557 4.22703 4.87156C5.17104 3.92756 6.37377 3.28468 7.68314 3.02423C8.99252 2.76378 10.3497 2.89745 11.5831 3.40834C12.8165 3.91924 13.8707 4.7844 14.6124 5.89443C15.3541 7.00446 15.75 8.30951 15.75 9.64453C15.75 11.4347 15.0388 13.1516 13.773 14.4175C12.5071 15.6834 10.7902 16.3945 9 16.3945Z" fill="#6C757D"/>
<path d="M9 14.707C9.46599 14.707 9.84375 14.3293 9.84375 13.8633C9.84375 13.3973 9.46599 13.0195 9 13.0195C8.53401 13.0195 8.15625 13.3973 8.15625 13.8633C8.15625 14.3293 8.53401 14.707 9 14.707Z" fill="#6C757D"/>
<path d="M9.56251 5.14454H8.71876C8.38614 5.1438 8.05665 5.20876 7.74921 5.33571C7.44177 5.46265 7.16243 5.64907 6.92724 5.88427C6.69204 6.11947 6.50562 6.3988 6.37868 6.70624C6.25173 7.01368 6.18676 7.34317 6.18751 7.67579V7.95704H7.31251V7.67579C7.31251 7.30283 7.46066 6.94514 7.72439 6.68142C7.98811 6.4177 8.3458 6.26954 8.71876 6.26954H9.56251C9.93547 6.26954 10.2932 6.4177 10.5569 6.68142C10.8206 6.94514 10.9688 7.30283 10.9688 7.67579C10.9688 8.04875 10.8206 8.40643 10.5569 8.67016C10.2932 8.93388 9.93547 9.08204 9.56251 9.08204H8.43751V11.6133H9.56251V10.207C10.2338 10.207 10.8777 9.94035 11.3524 9.46565C11.8271 8.99095 12.0938 8.34712 12.0938 7.67579C12.0938 7.00446 11.8271 6.36063 11.3524 5.88592C10.8777 5.41122 10.2338 5.14454 9.56251 5.14454Z" fill="#6C757D"/>
</svg>
