<svg width="25" height="24" viewBox="0 0 25 24" fill="none" xmlns="http://www.w3.org/2000/svg">
<g clip-path="url(#clip0_4564_74485)">
<path d="M23.9531 19.875H22.0781V8.625H22.4531C22.5526 8.625 22.648 8.58549 22.7183 8.51517C22.7886 8.44484 22.8281 8.34946 22.8281 8.25C22.8281 8.15054 22.7886 8.05516 22.7183 7.98483C22.648 7.91451 22.5526 7.875 22.4531 7.875H17.5781V4.125H17.9531C18.0526 4.125 18.148 4.08549 18.2183 4.01516C18.2886 3.94484 18.3281 3.84946 18.3281 3.75C18.3281 3.65054 18.2886 3.55516 18.2183 3.48484C18.148 3.41451 18.0526 3.375 17.9531 3.375H4.45312C4.35367 3.375 4.25829 3.41451 4.18796 3.48484C4.11763 3.55516 4.07812 3.65054 4.07812 3.75C4.07812 3.84946 4.11763 3.94484 4.18796 4.01516C4.25829 4.08549 4.35367 4.125 4.45312 4.125H4.82812V19.875H2.95312C2.85367 19.875 2.75829 19.9145 2.68796 19.9848C2.61763 20.0552 2.57812 20.1505 2.57812 20.25C2.57812 20.3495 2.61763 20.4448 2.68796 20.5152C2.75829 20.5855 2.85367 20.625 2.95312 20.625H23.9531C24.0526 20.625 24.148 20.5855 24.2183 20.5152C24.2886 20.4448 24.3281 20.3495 24.3281 20.25C24.3281 20.1505 24.2886 20.0552 24.2183 19.9848C24.148 19.9145 24.0526 19.875 23.9531 19.875ZM21.3281 8.625V19.875H17.5781V8.625H21.3281ZM5.57812 4.125H16.8281V19.875H13.8281V15C13.8281 14.9005 13.7886 14.8052 13.7183 14.7348C13.648 14.6645 13.5526 14.625 13.4531 14.625H8.95312C8.85367 14.625 8.75829 14.6645 8.68796 14.7348C8.61763 14.8052 8.57812 14.9005 8.57812 15V19.875H5.57812V4.125ZM13.0781 19.875H9.32812V15.375H13.0781V19.875ZM7.82812 7.5C7.82812 7.40054 7.86763 7.30516 7.93796 7.23483C8.00829 7.16451 8.10367 7.125 8.20312 7.125H9.70312C9.80258 7.125 9.89796 7.16451 9.96829 7.23483C10.0386 7.30516 10.0781 7.40054 10.0781 7.5C10.0781 7.59946 10.0386 7.69484 9.96829 7.76517C9.89796 7.83549 9.80258 7.875 9.70312 7.875H8.20312C8.10367 7.875 8.00829 7.83549 7.93796 7.76517C7.86763 7.69484 7.82812 7.59946 7.82812 7.5ZM12.3281 7.5C12.3281 7.40054 12.3676 7.30516 12.438 7.23483C12.5083 7.16451 12.6037 7.125 12.7031 7.125H14.2031C14.3026 7.125 14.398 7.16451 14.4683 7.23483C14.5386 7.30516 14.5781 7.40054 14.5781 7.5C14.5781 7.59946 14.5386 7.69484 14.4683 7.76517C14.398 7.83549 14.3026 7.875 14.2031 7.875H12.7031C12.6037 7.875 12.5083 7.83549 12.438 7.76517C12.3676 7.69484 12.3281 7.59946 12.3281 7.5ZM8.20312 11.625C8.10367 11.625 8.00829 11.5855 7.93796 11.5152C7.86763 11.4448 7.82812 11.3495 7.82812 11.25C7.82812 11.1505 7.86763 11.0552 7.93796 10.9848C8.00829 10.9145 8.10367 10.875 8.20312 10.875H9.70312C9.80258 10.875 9.89796 10.9145 9.96829 10.9848C10.0386 11.0552 10.0781 11.1505 10.0781 11.25C10.0781 11.3495 10.0386 11.4448 9.96829 11.5152C9.89796 11.5855 9.80258 11.625 9.70312 11.625H8.20312ZM12.3281 11.25C12.3281 11.1505 12.3676 11.0552 12.438 10.9848C12.5083 10.9145 12.6037 10.875 12.7031 10.875H14.2031C14.3026 10.875 14.398 10.9145 14.4683 10.9848C14.5386 11.0552 14.5781 11.1505 14.5781 11.25C14.5781 11.3495 14.5386 11.4448 14.4683 11.5152C14.398 11.5855 14.3026 11.625 14.2031 11.625H12.7031C12.6037 11.625 12.5083 11.5855 12.438 11.5152C12.3676 11.4448 12.3281 11.3495 12.3281 11.25Z" fill="black"/>
</g>
<defs>
<clipPath id="clip0_4564_74485">
<rect width="24" height="24" fill="white" transform="translate(0.703125)"/>
</clipPath>
</defs>
</svg>
