<svg width="13" height="13" viewBox="0 0 13 13" fill="none" xmlns="http://www.w3.org/2000/svg">
<path d="M7.20312 2C7.33056 2.00014 7.45314 2.04894 7.54581 2.13642C7.63848 2.22391 7.69424 2.34348 7.70171 2.4707C7.70918 2.59792 7.66779 2.72319 7.58599 2.82092C7.5042 2.91864 7.38817 2.98145 7.26162 2.9965L7.20312 3H3.20312V10H10.2031V6C10.2033 5.87256 10.2521 5.74998 10.3395 5.65732C10.427 5.56465 10.5466 5.50888 10.6738 5.50141C10.801 5.49395 10.9263 5.53534 11.024 5.61713C11.1218 5.69893 11.1846 5.81495 11.1996 5.9415L11.2031 6V10C11.2032 10.2523 11.1079 10.4953 10.9364 10.6803C10.7648 10.8653 10.5297 10.9786 10.2781 10.9975L10.2031 11H3.20312C2.95084 11.0001 2.70784 10.9048 2.52285 10.7333C2.33786 10.5617 2.22455 10.3266 2.20563 10.075L2.20313 10V3C2.20305 2.74771 2.29833 2.50472 2.46987 2.31973C2.64142 2.13474 2.87655 2.02142 3.12813 2.0025L3.20312 2H7.20312ZM10.3246 2.1715C10.4146 2.08183 10.5353 2.02976 10.6623 2.02589C10.7893 2.02201 10.913 2.06661 11.0083 2.15062C11.1035 2.23464 11.1633 2.35178 11.1753 2.47824C11.1874 2.6047 11.1508 2.731 11.0731 2.8315L11.0316 2.879L6.08162 7.8285C5.99165 7.91817 5.87091 7.97024 5.74393 7.97411C5.61696 7.97799 5.49327 7.93339 5.39799 7.84938C5.3027 7.76536 5.24297 7.64822 5.23093 7.52176C5.21888 7.3953 5.25542 7.269 5.33313 7.1685L5.37463 7.1215L10.3246 2.1715Z" fill="#0D7ECA"/>
</svg>
