<svg width="69" height="68" viewBox="0 0 69 68" fill="none" xmlns="http://www.w3.org/2000/svg">
<path d="M36.625 57.375V44.625H45.125L34.5 31.875L23.875 44.625H32.375V57.375H21.75V57.2688C21.393 57.29 21.053 57.375 20.6875 57.375C16.4606 57.375 12.4068 55.6959 9.41799 52.707C6.42912 49.7182 4.75 45.6644 4.75 41.4375C4.75 33.2605 10.9338 26.5965 18.8685 25.6828C19.5642 22.046 21.5054 18.7653 24.3583 16.405C27.2111 14.0447 30.7973 12.7523 34.5 12.75C38.2032 12.752 41.79 14.0443 44.6436 16.4046C47.4972 18.7649 49.4392 22.0456 50.1357 25.6828C58.0705 26.5965 64.2457 33.2605 64.2457 41.4375C64.2457 45.6644 62.5666 49.7182 59.5778 52.707C56.5889 55.6959 52.5351 57.375 48.3082 57.375C47.9512 57.375 47.607 57.29 47.2457 57.2688V57.375H36.625Z" fill="url(#paint0_linear_4516_25191)"/>
<defs>
<linearGradient id="paint0_linear_4516_25191" x1="22.2806" y1="35.0625" x2="63.0214" y2="34.5753" gradientUnits="userSpaceOnUse">
<stop stop-color="#0D7ECA"/>
<stop offset="1" stop-color="#18A0FB"/>
</linearGradient>
</defs>
</svg>
