<svg width="13" height="8" viewBox="0 0 13 8" fill="none" xmlns="http://www.w3.org/2000/svg">
<path d="M6.70312 3C7.01172 3 7.30273 3.05859 7.57617 3.17578C7.84961 3.29297 8.08789 3.45312 8.29102 3.65625C8.49414 3.85938 8.65625 4.09961 8.77734 4.37695C8.89844 4.6543 8.95703 4.94531 8.95312 5.25C8.95312 5.5625 8.89453 5.85352 8.77734 6.12305C8.66016 6.39258 8.5 6.63086 8.29688 6.83789C8.09375 7.04492 7.85352 7.20703 7.57617 7.32422C7.29883 7.44141 7.00781 7.5 6.70312 7.5C6.39062 7.5 6.09961 7.44141 5.83008 7.32422C5.56055 7.20703 5.32227 7.04688 5.11523 6.84375C4.9082 6.64062 4.74609 6.40234 4.62891 6.12891C4.51172 5.85547 4.45312 5.5625 4.45312 5.25C4.45312 4.94141 4.51172 4.65039 4.62891 4.37695C4.74609 4.10352 4.90625 3.86523 5.10938 3.66211C5.3125 3.45898 5.55078 3.29688 5.82422 3.17578C6.09766 3.05469 6.39062 2.99609 6.70312 3ZM6.70312 6.75C6.91016 6.75 7.10352 6.71094 7.2832 6.63281C7.46289 6.55469 7.62305 6.44727 7.76367 6.31055C7.9043 6.17383 8.01172 6.01562 8.08594 5.83594C8.16016 5.65625 8.19922 5.46094 8.20312 5.25C8.20312 5.04297 8.16406 4.84961 8.08594 4.66992C8.00781 4.49023 7.90039 4.33008 7.76367 4.18945C7.62695 4.04883 7.46875 3.94141 7.28906 3.86719C7.10938 3.79297 6.91406 3.75391 6.70312 3.75C6.49609 3.75 6.30273 3.78906 6.12305 3.86719C5.94336 3.94531 5.7832 4.05273 5.64258 4.18945C5.50195 4.32617 5.39453 4.48438 5.32031 4.66406C5.24609 4.84375 5.20703 5.03906 5.20312 5.25C5.20312 5.45703 5.24219 5.65039 5.32031 5.83008C5.39844 6.00977 5.50586 6.16992 5.64258 6.31055C5.7793 6.45117 5.9375 6.55859 6.11719 6.63281C6.29688 6.70703 6.49219 6.74609 6.70312 6.75ZM6.70312 0C7.26172 0 7.81641 0.0683594 8.36719 0.205078C8.91797 0.341797 9.4375 0.546875 9.92578 0.820312C10.4141 1.09375 10.8555 1.42578 11.25 1.81641C11.6445 2.20703 11.9688 2.66406 12.2227 3.1875C12.3789 3.51172 12.498 3.8457 12.5801 4.18945C12.6621 4.5332 12.7031 4.88672 12.7031 5.25H11.9531C11.9531 4.78906 11.8828 4.35742 11.7422 3.95508C11.6016 3.55273 11.4082 3.18555 11.1621 2.85352C10.916 2.52148 10.623 2.22461 10.2832 1.96289C9.94336 1.70117 9.58203 1.48047 9.19922 1.30078C8.81641 1.12109 8.4082 0.984375 7.97461 0.890625C7.54102 0.796875 7.11719 0.75 6.70312 0.75C6.28125 0.75 5.85742 0.796875 5.43164 0.890625C5.00586 0.984375 4.59961 1.12109 4.21289 1.30078C3.82617 1.48047 3.46289 1.70117 3.12305 1.96289C2.7832 2.22461 2.49219 2.52148 2.25 2.85352C2.00781 3.18555 1.8125 3.55273 1.66406 3.95508C1.51562 4.35742 1.44531 4.78906 1.45312 5.25H0.703125C0.703125 4.89062 0.744141 4.53906 0.826172 4.19531C0.908203 3.85156 1.02734 3.51562 1.18359 3.1875C1.43359 2.67188 1.75586 2.2168 2.15039 1.82227C2.54492 1.42773 2.98828 1.09375 3.48047 0.820312C3.97266 0.546875 4.49219 0.34375 5.03906 0.210938C5.58594 0.078125 6.14062 0.0078125 6.70312 0Z" fill="white"/>
</svg>
