<svg width="28" height="28" viewBox="0 0 28 28" fill="none" xmlns="http://www.w3.org/2000/svg">
<rect width="28" height="28" rx="14" fill="#18A0FB"/>
<path d="M18.6667 6C19.5507 6 20.3986 6.35119 21.0237 6.97631C21.6488 7.60143 22 8.44928 22 9.33333V10.6667C22 10.8435 21.9298 11.013 21.8047 11.1381C21.6797 11.2631 21.5101 11.3333 21.3333 11.3333C21.1565 11.3333 20.987 11.2631 20.8619 11.1381C20.7369 11.013 20.6667 10.8435 20.6667 10.6667V9.33333C20.6667 8.8029 20.456 8.29419 20.0809 7.91912C19.7058 7.54405 19.1971 7.33333 18.6667 7.33333H17.3333C17.1565 7.33333 16.987 7.2631 16.8619 7.13807C16.7369 7.01305 16.6667 6.84348 16.6667 6.66667C16.6667 6.48986 16.7369 6.32029 16.8619 6.19526C16.987 6.07024 17.1565 6 17.3333 6H18.6667ZM9.33333 6C8.44928 6 7.60143 6.35119 6.97631 6.97631C6.35119 7.60143 6 8.44928 6 9.33333V10.6667C6 10.8435 6.07024 11.013 6.19526 11.1381C6.32029 11.2631 6.48986 11.3333 6.66667 11.3333C6.84348 11.3333 7.01305 11.2631 7.13807 11.1381C7.2631 11.013 7.33333 10.8435 7.33333 10.6667V9.33333C7.33333 8.8029 7.54405 8.29419 7.91912 7.91912C8.29419 7.54405 8.8029 7.33333 9.33333 7.33333H10.6667C10.8435 7.33333 11.013 7.2631 11.1381 7.13807C11.2631 7.01305 11.3333 6.84348 11.3333 6.66667C11.3333 6.48986 11.2631 6.32029 11.1381 6.19526C11.013 6.07024 10.8435 6 10.6667 6H9.33333ZM18.6667 22C19.5507 22 20.3986 21.6488 21.0237 21.0237C21.6488 20.3986 22 19.5507 22 18.6667V17.3333C22 17.1565 21.9298 16.987 21.8047 16.8619C21.6797 16.7369 21.5101 16.6667 21.3333 16.6667C21.1565 16.6667 20.987 16.7369 20.8619 16.8619C20.7369 16.987 20.6667 17.1565 20.6667 17.3333V18.6667C20.6667 19.1971 20.456 19.7058 20.0809 20.0809C19.7058 20.456 19.1971 20.6667 18.6667 20.6667H17.3333C17.1565 20.6667 16.987 20.7369 16.8619 20.8619C16.7369 20.987 16.6667 21.1565 16.6667 21.3333C16.6667 21.5101 16.7369 21.6797 16.8619 21.8047C16.987 21.9298 17.1565 22 17.3333 22H18.6667ZM6 18.6667C6 19.5507 6.35119 20.3986 6.97631 21.0237C7.60143 21.6488 8.44928 22 9.33333 22H10.6667C10.8435 22 11.013 21.9298 11.1381 21.8047C11.2631 21.6797 11.3333 21.5101 11.3333 21.3333C11.3333 21.1565 11.2631 20.987 11.1381 20.8619C11.013 20.7369 10.8435 20.6667 10.6667 20.6667H9.33333C8.8029 20.6667 8.29419 20.456 7.91912 20.0809C7.54405 19.7058 7.33333 19.1971 7.33333 18.6667V17.3333C7.33333 17.1565 7.2631 16.987 7.13807 16.8619C7.01305 16.7369 6.84348 16.6667 6.66667 16.6667C6.48986 16.6667 6.32029 16.7369 6.19526 16.8619C6.07024 16.987 6 17.1565 6 17.3333V18.6667ZM14 16.6667C14.7072 16.6667 15.3855 16.3857 15.8856 15.8856C16.3857 15.3855 16.6667 14.7072 16.6667 14C16.6667 13.2928 16.3857 12.6145 15.8856 12.1144C15.3855 11.6143 14.7072 11.3333 14 11.3333C13.2928 11.3333 12.6145 11.6143 12.1144 12.1144C11.6143 12.6145 11.3333 13.2928 11.3333 14C11.3333 14.7072 11.6143 15.3855 12.1144 15.8856C12.6145 16.3857 13.2928 16.6667 14 16.6667ZM14 15.3333C13.6464 15.3333 13.3072 15.1929 13.0572 14.9428C12.8071 14.6928 12.6667 14.3536 12.6667 14C12.6667 13.6464 12.8071 13.3072 13.0572 13.0572C13.3072 12.8071 13.6464 12.6667 14 12.6667C14.3536 12.6667 14.6928 12.8071 14.9428 13.0572C15.1929 13.3072 15.3333 13.6464 15.3333 14C15.3333 14.3536 15.1929 14.6928 14.9428 14.9428C14.6928 15.1929 14.3536 15.3333 14 15.3333ZM10 11C10.2652 11 10.5196 10.8946 10.7071 10.7071C10.8946 10.5196 11 10.2652 11 10C11 9.73478 10.8946 9.48043 10.7071 9.29289C10.5196 9.10536 10.2652 9 10 9C9.73478 9 9.48043 9.10536 9.29289 9.29289C9.10536 9.48043 9 9.73478 9 10C9 10.2652 9.10536 10.5196 9.29289 10.7071C9.48043 10.8946 9.73478 11 10 11Z" fill="white"/>
</svg>
