<svg width="50" height="21" viewBox="0 0 50 21" fill="none" xmlns="http://www.w3.org/2000/svg">
<path fill-rule="evenodd" clip-rule="evenodd" d="M23.0593 16.5169V10.475H26.1776C27.4555 10.475 28.534 10.0468 29.4132 9.20239L29.6242 8.98831C31.2303 7.23996 31.1248 4.51635 29.4132 2.89883C28.5574 2.04249 27.3851 1.57865 26.1776 1.60243H21.1719V16.5169H23.0593ZM23.0595 8.64337V3.43401H26.2253C26.9053 3.43401 27.5502 3.69567 28.0309 4.17141C29.051 5.17046 29.0744 6.83556 28.0895 7.87029C27.6088 8.38172 26.9288 8.66716 26.2253 8.64337H23.0595ZM38.4283 7.10915C37.6194 6.35985 36.5175 5.97926 35.1224 5.97926C33.3288 5.97926 31.9806 6.6453 31.0897 7.96548L32.7544 9.024C33.364 8.1201 34.1963 7.66814 35.2514 7.66814C35.9196 7.66814 36.5644 7.91791 37.0685 8.36986C37.5608 8.79803 37.8422 9.41649 37.8422 10.0706V10.5107C37.1154 10.1063 36.201 9.89223 35.0755 9.89223C33.7625 9.89223 32.7075 10.2015 31.922 10.8318C31.1366 11.4622 30.738 12.2947 30.738 13.3532C30.7145 14.3166 31.1248 15.2324 31.8517 15.8509C32.5902 16.5169 33.5281 16.8499 34.6301 16.8499C35.9313 16.8499 36.963 16.2672 37.7484 15.1016H37.8305V16.5169H39.6358V10.2252C39.6358 8.90507 39.2372 7.85844 38.4283 7.10915ZM33.3057 14.6377C32.9187 14.3523 32.6842 13.8884 32.6842 13.3889C32.6842 12.8299 32.9422 12.3661 33.4464 11.9974C33.9623 11.6287 34.6071 11.4384 35.3693 11.4384C36.4245 11.4265 37.2453 11.6644 37.8315 12.1401C37.8315 12.9489 37.5149 13.6506 36.8935 14.2453C36.3307 14.8161 35.5686 15.1373 34.7713 15.1373C34.2437 15.1492 33.7278 14.9708 33.3057 14.6377ZM43.6921 21.0008L49.9991 6.31228H47.9476L45.0285 13.6387H44.9933L42.0039 6.31228H39.9524L44.0906 15.8628L41.746 21.0008H43.6921Z" fill="#3C4043"/>
<path d="M16.546 9.16614C16.546 8.58336 16.4991 8.00058 16.4053 7.42969H8.44531V10.7242H13.0056C12.818 11.7827 12.2084 12.7342 11.3175 13.3289V15.4697H14.0372C15.6316 13.983 16.546 11.7827 16.546 9.16614Z" fill="#4285F4"/>
<path d="M8.44421 17.5392C10.7185 17.5392 12.6411 16.778 14.0361 15.4697L11.3164 13.3289C10.5544 13.8522 9.58136 14.1496 8.44421 14.1496C6.24027 14.1496 4.37629 12.6391 3.70807 10.6172H0.90625V12.8294C2.33647 15.7195 5.25553 17.5392 8.44421 17.5392Z" fill="#34A853"/>
<path d="M3.70803 10.6177C3.35628 9.55916 3.35628 8.40548 3.70803 7.33507V5.13477H0.905755C-0.301918 7.54915 -0.301918 10.4036 0.905755 12.818L3.70803 10.6177Z" fill="#FBBC04"/>
<path d="M8.44421 3.80228C9.65169 3.77849 10.8123 4.24234 11.6798 5.08678L14.0948 2.63672C12.559 1.18571 10.5427 0.38884 8.44421 0.412627C5.25553 0.412627 2.33647 2.24423 0.90625 5.13436L3.70807 7.34655C4.37629 5.31276 6.24027 3.80228 8.44421 3.80228Z" fill="#EA4335"/>
</svg>
