<svg width="14" height="14" viewBox="0 0 14 14" fill="none" xmlns="http://www.w3.org/2000/svg">
<g clip-path="url(#clip0_4516_24961)">
<rect x="1" y="1" width="12" height="12" rx="6" fill="white"/>
<mask id="mask0_4516_24961" style="mask-type:luminance" maskUnits="userSpaceOnUse" x="1" y="1" width="12" height="12">
<path d="M7 12C7.65673 12.0008 8.30715 11.8719 8.91388 11.6205C9.52062 11.3692 10.0717 11.0005 10.5355 10.5355C11.0005 10.0717 11.3692 9.52062 11.6205 8.91388C11.8719 8.30715 12.0008 7.65673 12 7C12.0008 6.34328 11.8719 5.69286 11.6205 5.08613C11.3692 4.47939 11.0005 3.9283 10.5355 3.4645C10.0717 2.99954 9.52062 2.63081 8.91388 2.37948C8.30715 2.12816 7.65673 1.99919 7 2C6.34328 1.99919 5.69286 2.12816 5.08613 2.37948C4.47939 2.63081 3.9283 2.99954 3.4645 3.4645C2.99954 3.9283 2.63081 4.47939 2.37948 5.08613C2.12816 5.69286 1.99919 6.34328 2 7C1.99919 7.65673 2.12816 8.30715 2.37948 8.91388C2.63081 9.52062 2.99954 10.0717 3.4645 10.5355C3.9283 11.0005 4.47939 11.3692 5.08613 11.6205C5.69286 11.8719 6.34328 12.0008 7 12Z" fill="white" stroke="white" stroke-width="2" stroke-linejoin="round"/>
<path d="M5 7L6.5 8.5L9.5 5.5" stroke="black" stroke-width="2" stroke-linecap="round" stroke-linejoin="round"/>
</mask>
<g mask="url(#mask0_4516_24961)">
<path d="M1 1H13V13H1V1Z" fill="url(#paint0_linear_4516_24961)"/>
</g>
</g>
<rect x="0.5" y="0.5" width="13" height="13" rx="6.5" stroke="white"/>
<defs>
<linearGradient id="paint0_linear_4516_24961" x1="4.53583" y1="7" x2="12.7536" y2="6.9263" gradientUnits="userSpaceOnUse">
<stop stop-color="#0D7ECA"/>
<stop offset="1" stop-color="#18A0FB"/>
</linearGradient>
<clipPath id="clip0_4516_24961">
<rect x="1" y="1" width="12" height="12" rx="6" fill="white"/>
</clipPath>
</defs>
</svg>
